
<svg width="128" height="56" viewBox="0 0 128 56" fill="none" xmlns="http://www.w3.org/2000/svg">
<g filter="url(#filter0_d_49_476)">
<path fill-rule="evenodd" clip-rule="evenodd" d="M71.3958 23.6529C71.3524 23.9311 71.2466 24.1959 71.0863 24.4275C70.926 24.659 70.7154 24.8512 70.4703 24.9898C69.9766 25.3086 69.5447 25.468 69.1077 25.6274C68.177 25.9488 67.1974 26.2702 66.1613 26.643C65.0687 27.0157 64.0891 27.3885 63.215 27.6585C62.1249 28.0313 61.0888 28.3526 60.1041 28.7254C59.3633 29.0425 58.6674 29.4556 58.0345 29.9544C57.4458 30.4877 56.9321 31.0983 56.5073 31.7695C56.0703 32.515 55.7952 33.4766 55.7952 34.5975C55.7952 36.842 56.3402 38.5491 57.4329 39.6161C58.523 40.7396 60.5438 41.2718 63.5389 41.2718C66.5933 41.2718 68.6655 40.6856 69.7607 39.5107C70.8482 38.3357 71.3932 36.6826 71.3932 34.5487V23.6529H71.3958ZM63.5415 0C68.8891 0 72.815 1.01553 75.3217 3.09802C77.831 5.12908 79.0856 7.74119 79.0856 10.8366V37.2148C79.0856 38.2817 78.8696 39.4567 78.4891 40.737C78.1035 42.0225 77.3425 43.1949 76.1418 44.2592C74.9977 45.3313 73.4166 46.2389 71.3984 46.933C69.3802 47.6272 66.7629 48 63.5441 48C60.3304 48 57.708 47.6272 55.6923 46.933C53.6767 46.2389 52.093 45.3313 50.9489 44.2592C49.8846 43.3001 49.0783 42.089 48.6042 40.737C48.2185 39.4592 48 38.2843 48 37.2174V33.001C48 30.7565 48.599 28.674 49.7997 26.8563C51.0003 24.9898 52.6894 23.7095 54.8722 22.9073C55.9623 22.5345 57.2169 22.1618 58.6335 21.681C60.0527 21.1976 61.3588 20.7169 62.6699 20.2927C63.9811 19.8633 65.1252 19.434 66.1048 19.0586C66.6959 18.8221 67.2963 18.6094 67.9044 18.421L68.8866 17.9402C69.2722 17.7268 69.6501 17.4055 70.0332 16.9787C70.4137 16.5545 70.7402 16.0737 71.0153 15.5389C71.306 14.9599 71.4557 14.3203 71.4524 13.6724V11.9627C71.4564 11.3361 71.3249 10.716 71.0667 10.145C70.8508 9.5023 70.4137 8.91612 69.8147 8.38393C69.2156 7.84917 68.3955 7.42239 67.416 7.09845C66.4338 6.78222 65.1278 6.62025 63.6521 6.62025C60.5977 6.62025 58.5795 7.21157 57.4894 8.43535C56.5639 9.50488 56.0189 10.8392 55.9109 12.3329C55.9109 12.6543 55.6383 12.8677 55.3093 12.8677L48.6582 12.9757C48.5002 12.9764 48.3483 12.9146 48.2356 12.8039C48.123 12.6931 48.0586 12.5423 48.0566 12.3844V10.8418C48.0566 9.3429 48.3317 7.95458 48.9307 6.62025C49.5323 5.28334 50.4604 4.16497 51.7125 3.20086C52.9671 2.24189 54.6048 1.44231 56.5665 0.907552C58.4767 0.26481 60.8214 0 63.5467 0H63.5415Z" fill="#0A3871"/>
</g>
<defs>
<filter id="filter0_d_49_476" x="0" y="0" width="128" height="56" filterUnits="userSpaceOnUse" color-interpolation-filters="sRGB">
<feFlood flood-opacity="0" result="BackgroundImageFix"/>
<feColorMatrix in="SourceAlpha" type="matrix" values="0 0 0 0 0 0 0 0 0 0 0 0 0 0 0 0 0 0 127 0" result="hardAlpha"/>
<feOffset dy="4"/>
<feGaussianBlur stdDeviation="2"/>
<feComposite in2="hardAlpha" operator="out"/>
<feColorMatrix type="matrix" values="0 0 0 0 0 0 0 0 0 0 0 0 0 0 0 0 0 0 0.25 0"/>
<feBlend mode="normal" in2="BackgroundImageFix" result="effect1_dropShadow_49_476"/>
<feBlend mode="normal" in="SourceGraphic" in2="effect1_dropShadow_49_476" result="shape"/>
</filter>
</defs>
</svg>
